<svg xmlns="http://www.w3.org/2000/svg" width="62.875" height="15" viewBox="0 0 62.875 15">
  <defs>
    <style>
      .cls-1 {
        fill: #bd8f62;
        fill-rule: evenodd;
        opacity: 0.3;
      }
    </style>
  </defs>
  <path id="Stars" class="cls-1" d="M352.049,903.579l2.144,5.587,6.433,0.152-5.107,3.6,1.831,5.681-5.3-3.36-5.3,3.36,1.832-5.681-5.108-3.6,6.433-.152Zm22.859,0,2.144,5.587,6.432,0.152-5.107,3.6,1.831,5.681-5.3-3.36-5.3,3.36,1.831-5.681-5.107-3.6,6.433-.152Zm22.858,0,2.144,5.587,6.433,0.152-5.107,3.6,1.831,5.681-5.3-3.36-5.3,3.36,1.832-5.681-5.108-3.6,6.433-.152Z" transform="translate(-343.469 -903.594)"/>
</svg>
